<?xml version="1.0" encoding="UTF-8"?>
<svg fill="none" viewBox="0 0 160 32" xmlns="http://www.w3.org/2000/svg">
<g clip-path="url(#a)">
<path d="m38.899 0.8c-4.002 0-5.4427 2.8-5.4427 5.44v1.6h-0.8805c-0.6403 0-1.1205 0.48-1.1205 1.12s0.4802 1.12 1.1205 1.12h0.8805v11.04c0 0.64 0.4802 1.12 1.1206 1.12 0.6403 0 1.1205-0.48 1.1205-1.12v-11.12h2.5613c0.6403 0 1.1206-0.48 1.1206-1.12s-0.4803-1.12-1.1206-1.12h-2.5613v-1.6c0-1.44 0.5603-3.2 3.1216-3.2 0.6403 0 1.1205-0.48 1.1205-1.12s-0.4002-1.04-1.0405-1.04zm9.0445 6.64c-1.7608 0-3.2016 0.72-4.002 1.92v-0.64c0-0.64-0.4802-1.12-1.1205-1.12s-1.2006 0.48-1.2006 1.12v12.32c0 0.64 0.4802 1.12 1.1205 1.12 0.6404 0 1.1206-0.48 1.1206-1.12v-6.8c0-2.88 1.5208-4.56 4.002-4.56 0.6403 0 1.1206-0.48 1.1206-1.12 0.16-0.56-0.4002-1.12-1.0406-1.12zm14.247 6.08c0-0.64-0.0801-2.4-1.1206-3.84-1.0405-1.52-2.6413-2.32-4.8024-2.32-4.082 0-6.4032 2.72-6.4032 7.44 0 4.88 2.3212 7.52 6.7234 7.52 2.9614 0 4.5622-1.44 4.8824-1.76 0.1601-0.16 0.4002-0.4 0.4002-0.8 0-0.56-0.4802-1.04-1.0405-1.04-0.3202 0-0.4803 0.08-0.6403 0.24-0.8805 0.64-1.841 1.28-3.5218 1.28-2.6413 0-4.3222-1.76-4.4022-4.56h8.5643c1.3607-0.08 1.3607-1.36 1.3607-2.16zm-5.923-4c2.4012 0 3.6018 1.36 3.6818 4h-7.7638c0.2401-2.56 1.6808-4 4.082-4zm13.767 4.16c-1.7609-0.56-3.2016-1.12-3.2016-2.4 0-1.44 1.6008-1.6 2.4812-1.6 1.6809 0 2.4813 0.56 3.2016 1.2 0.2401 0.24 0.4803 0.32 0.8004 0.32 0.5603 0 1.0405-0.48 1.0405-1.04 0-0.32-0.16-0.56-0.2401-0.72-0.9605-1.28-2.6413-2-4.7223-2-2.9615 0-4.8024 1.44-4.8024 3.84 0 2.88 2.5612 3.76 4.8024 4.56 1.6808 0.56 3.2016 1.04 3.2016 2.32 0 1.68-1.921 2-3.0416 2-1.5207 0-2.7213-0.48-3.6818-1.44-0.3202-0.32-0.5603-0.32-0.8004-0.32-0.5603 0-1.0405 0.48-1.0405 1.04 0 0.24 0.08 0.4 0.2401 0.72 0.8804 1.12 2.8814 2.24 5.3627 2.24 3.3617 0 5.3627-1.6 5.3627-4.16-0.2402-2.96-2.7214-3.76-4.9625-4.56zm13.847-6.32c-1.6008 0-3.0415 0.64-3.8419 1.68v-7.92c0-0.64-0.4803-1.12-1.1206-1.12s-1.1205 0.48-1.1205 1.12v19.92c0 0.64 0.4802 1.12 1.1205 1.12s1.1206-0.48 1.1206-1.12v-7.52c0-2.72 1.2806-4.08 3.8419-4.08 2.4812 0 3.4417 1.12 3.4417 3.84v7.68c0 0.64 0.4803 1.12 1.1206 1.12s1.1205-0.48 1.1205-1.12v-8c0.0801-3.68-1.8409-5.6-5.6828-5.6zm25.132 0.24c-0.48 0-0.88 0.32-1.12 0.8l-3.282 9.44-2.721-9.44c-0.08-0.4-0.48-0.8-1.121-0.8-0.56 0-0.9601 0.4-1.1202 0.8l-2.7214 9.44-3.2816-9.52c-0.1601-0.48-0.5603-0.72-1.1206-0.72-0.6403 0-1.1205 0.48-1.1205 1.12 0 0.16 0 0.32 0.08 0.48l4.4822 12.24c0.1601 0.48 0.5603 0.72 1.1206 0.72s0.9605-0.32 1.1206-0.8l2.6409-8.96 2.642 8.96c0.16 0.48 0.64 0.8 1.12 0.8s0.881-0.32 1.121-0.8l4.482-12.24c0.08-0.16 0.08-0.32 0.08-0.48-0.08-0.56-0.64-1.04-1.281-1.04zm8.485-0.24c-4.242 0-6.564 2.64-6.564 7.44s2.322 7.52 6.564 7.52 6.563-2.64 6.563-7.52c0-4.72-2.321-7.44-6.563-7.44zm0 12.88c-2.802 0-4.242-1.76-4.242-5.36 0-3.52 1.44-5.36 4.242-5.36 2.801 0 4.242 1.76 4.242 5.36-0.08 3.6-1.441 5.36-4.242 5.36zm15.527-12.8c-1.76 0-3.201 0.72-4.002 1.92v-0.64c0-0.64-0.48-1.12-1.12-1.12s-1.121 0.48-1.121 1.12v12.32c0 0.64 0.481 1.12 1.121 1.12s1.12-0.48 1.12-1.12v-6.8c0-2.88 1.521-4.56 4.002-4.56 0.641 0 1.121-0.48 1.121-1.12 0-0.56-0.48-1.12-1.121-1.12zm8.885 6.08 4.802-3.84c0.401-0.32 0.481-0.72 0.481-0.96 0-0.64-0.481-1.12-1.121-1.12-0.16 0-0.48 0-0.8 0.32l-6.884 5.6v-12.4c0-0.64-0.48-1.12-1.12-1.12-0.641 0-1.121 0.48-1.121 1.12v19.92c0 0.64 0.48 1.12 1.121 1.12 0.64 0 1.12-0.48 1.12-1.12v-4.8l1.601-1.28 5.283 6.72c0.32 0.32 0.64 0.56 0.96 0.56 0.64 0 1.121-0.48 1.121-1.12 0-0.16 0-0.48-0.24-0.72l-5.203-6.88zm13.126 0.16c-1.76-0.56-3.201-1.12-3.201-2.4 0-1.44 1.601-1.6 2.481-1.6 1.681 0 2.481 0.56 3.202 1.2 0.24 0.24 0.48 0.32 0.8 0.32 0.56 0 1.041-0.48 1.041-1.04 0-0.32-0.16-0.56-0.24-0.72-0.961-1.28-2.642-2-4.723-2-2.961 0-4.802 1.44-4.802 3.84 0 2.88 2.561 3.76 4.802 4.56 1.681 0.56 3.202 1.04 3.202 2.32 0 1.68-1.921 2-3.042 2-1.521 0-2.721-0.48-3.682-1.44-0.32-0.32-0.56-0.32-0.8-0.32-0.56 0-1.041 0.48-1.041 1.04 0 0.24 0.081 0.4 0.241 0.72 0.88 1.12 2.881 2.24 5.362 2.24 3.362 0 5.363-1.6 5.363-4.16-0.24-2.96-2.721-3.76-4.963-4.56z" fill="#000"/>
<path d="m0.16016 20.68c0.4002 2.96 1.8409 5.6 3.8419 7.6l4.6423-4.64c0-4.72 2.4812-9.28 6.8034-11.84l-15.288 8.88z" fill="#9B65C3"/>
<path d="m8.6444 23.64c-2.3212 0-4.6423-0.56-6.8034-1.84-0.56028-0.32-1.1206-0.72-1.6808-1.12 0.4002 2.96 1.8409 5.6 3.8419 7.6l4.6423-4.64z" fill="#9B65C3"/>
<path d="m8.6443 23.64-4.6423 4.64c2.001 2 4.6423 3.44 7.6038 3.84l8.8844-15.28c-2.5613 4.32-7.1236 6.8-11.846 6.8z" fill="#BE63C5"/>
<path d="m10.485 30.44c-1.2806-2.16-1.8409-4.48-1.8409-6.8l-4.6423 4.64c2.001 2 4.6423 3.44 7.6038 3.84-0.4002-0.48-0.8004-1.04-1.1206-1.68z" fill="#BF63C6"/>
<path d="m26.013 5.72-10.565 6.08c-4.4022 2.56-9.5247 2.32-13.607 0-1.2006 2-1.8409 4.32-1.8409 6.88 0 0.72 0.08004 1.36 0.16008 2 0.56028 0.4 1.1206 0.8 1.6808 1.12 2.1611 1.28 4.4822 1.84 6.8034 1.84l17.609-17.6c-0.08-0.16-0.1601-0.24-0.2401-0.32z" fill="#3278B1"/>
<path d="m1.841 21.8c2.1611 1.28 4.4822 1.84 6.8034 1.84 0-4.72 2.4812-9.28 6.8034-11.84l-15.288 8.88c0.48024 0.4 1.0405 0.8 1.6808 1.12z" fill="#3278B2"/>
<path d="m1.8409 11.8c-1.2006 2-1.8409 4.32-1.8409 6.88 0 0.72 0.08004 1.36 0.16008 2l15.288-8.88c-4.3221 2.56-9.5247 2.4-13.607 0z" fill="#45A4EC"/>
<path d="m26.253 6.04c-0.08-0.08-0.1601-0.16-0.3201-0.24-0.1601-0.08-0.2402-0.24-0.4002-0.32-0.4803-0.32-1.1206-0.48-1.6809-0.48h-10.245c-5.0425 0-9.4447 2.72-11.846 6.8 4.082 2.32 9.2846 2.56 13.607 0-4.4022 2.56-6.8034 7.12-6.8034 11.84 4.7223 0 9.2846-2.48 11.846-6.8l6.083-10.56c0-0.08-0.08-0.16-0.2401-0.24z" fill="#19BB7D"/>
<path d="m15.448 11.8 10.565-6.08c-0.1601-0.08-0.2401-0.24-0.4002-0.32l-23.772 6.4c4.082 2.4 9.2847 2.56 13.607 0z" fill="#08C7FB"/>
<path d="m23.852 5h-10.245c-5.0425 0-9.4447 2.72-11.846 6.8l23.772-6.4c-0.4802-0.24-1.0405-0.4-1.6808-0.4z" fill="#59F2F6"/>
<path d="m20.49 16.84 6.0831-10.56c-0.0801-0.08-0.1601-0.16-0.2401-0.32l-17.609 17.6c0 2.32 0.56028 4.64 1.8409 6.8 0.3201 0.56 0.7203 1.12 1.1205 1.68 0.6404 0.08 1.3607 0.16 2.001 0.16 2.4813 0 4.8024-0.64 6.8034-1.84-2.4012-4-2.5612-9.2 0-13.52z" fill="#DA3757"/>
<path d="m8.6443 23.64c0 2.32 0.56028 4.64 1.8409 6.8 0.3202 0.56 0.7204 1.12 1.1206 1.68l8.8844-15.28c-2.5613 4.32-7.1236 6.8-11.846 6.8z" fill="#D33C4E"/>
<path d="m20.49 16.84-8.8845 15.28c0.6404 0.08 1.3607 0.16 2.001 0.16 2.4813 0 4.8024-0.64 6.8034-1.84-2.3211-4.08-2.4812-9.28 0.0801-13.6z" fill="#EE5A24"/>
<path d="m26.814 6.68c-0.0801-0.16-0.1601-0.32-0.3202-0.4-0.08-0.08-0.1601-0.16-0.2401-0.32-0.0801-0.08-0.1601-0.16-0.3202-0.24l-10.565 6.08c-4.4022 2.56-6.8034 7.12-6.8034 11.84 4.7224 0 9.2847-2.48 11.846-6.8-2.5613 4.4-2.3212 9.52 0 13.6 4.082-2.32 6.8034-6.8 6.8034-11.84v-10.16c0.08-0.64-0.0801-1.2-0.4002-1.76z" fill="#8BDF55"/>
<path d="m26.013 5.72-10.565 6.08c-4.4022 2.56-6.8034 7.12-6.8034 11.84l17.609-17.6c-0.08-0.16-0.1601-0.24-0.2401-0.32z" fill="#25C16F"/>
<path d="m8.6443 23.64c4.7223 0 9.2846-2.48 11.846-6.8l6.0831-10.56c-0.0801-0.08-0.1601-0.16-0.2402-0.32l-17.689 17.68z" fill="#8BDF55"/>
<path d="m26.573 6.28-6.0831 10.56c-2.5613 4.4-2.3211 9.52 0 13.6l6.4032-23.76c-0.1601-0.08-0.2401-0.24-0.3201-0.4z" fill="#fb0"/>
<path d="m20.49 30.44c4.0821-2.32 6.8034-6.8 6.8034-11.84v-10.16c0-0.64-0.16-1.2-0.4802-1.68l-6.3232 23.68z" fill="#FFA800"/>
</g>
<defs>
<clipPath id="a">
<rect width="160" height="32" fill="#fff"/>
</clipPath>
</defs>
</svg>
