<svg width="121" height="41" viewBox="0 0 121 41" fill="none" xmlns="http://www.w3.org/2000/svg">
<rect x="1" y="1.3999" width="119" height="39" rx="6.5" fill="black"/>
<path d="M82.0257 20.1008V22.3918H80.5896V23.8942H82.0257V28.9992C82.0257 30.7424 82.8143 31.4396 84.7981 31.4396C85.1468 31.4396 85.4788 31.3981 85.7693 31.3483V29.8625C85.5203 29.8874 85.3626 29.904 85.0887 29.904C84.2005 29.904 83.8104 29.4889 83.8104 28.5427V23.8942H85.7693V22.3918H83.8104V20.1008H82.0257Z" fill="white"/>
<path d="M90.8232 31.5641C93.4628 31.5641 95.0815 29.7961 95.0815 26.8659C95.0815 23.9523 93.4545 22.176 90.8232 22.176C88.1835 22.176 86.5566 23.9523 86.5566 26.8659C86.5566 29.7961 88.1752 31.5641 90.8232 31.5641ZM90.8232 29.9787C89.2709 29.9787 88.3994 28.8415 88.3994 26.8659C88.3994 24.9069 89.2709 23.7614 90.8232 23.7614C92.3671 23.7614 93.247 24.9069 93.247 26.8659C93.247 28.8332 92.3671 29.9787 90.8232 29.9787Z" fill="white"/>
<path d="M96.4664 31.3898H98.2511V26.0524C98.2511 24.7824 99.2056 23.9274 100.559 23.9274C100.874 23.9274 101.405 23.9855 101.555 24.0353V22.2756C101.364 22.2258 101.024 22.2009 100.758 22.2009C99.5792 22.2009 98.5748 22.8483 98.3175 23.7365H98.1846V22.3503H96.4664V31.3898Z" fill="white"/>
<path d="M105.986 23.695C107.306 23.695 108.169 24.6164 108.211 26.0358H103.645C103.745 24.6247 104.666 23.695 105.986 23.695ZM108.202 28.9494C107.87 29.655 107.132 30.0451 106.052 30.0451C104.625 30.0451 103.703 29.0407 103.645 27.4553V27.3556H110.029V26.7331C110.029 23.8942 108.509 22.176 105.994 22.176C103.446 22.176 101.827 24.0104 101.827 26.8991C101.827 29.7878 103.413 31.5641 106.003 31.5641C108.07 31.5641 109.514 30.568 109.921 28.9494H108.202Z" fill="white"/>
<path d="M70.3221 28.0517C70.4598 30.2714 72.3095 31.6909 75.0626 31.6909C78.005 31.6909 79.8462 30.2025 79.8462 27.828C79.8462 25.961 78.7966 24.9286 76.2499 24.3349L74.882 23.9994C73.2645 23.6208 72.6106 23.1132 72.6106 22.2271C72.6106 21.1086 73.6259 20.3773 75.1487 20.3773C76.5941 20.3773 77.5921 21.0914 77.7727 22.2357H79.6483C79.5365 20.145 77.6953 18.6738 75.1745 18.6738C72.4644 18.6738 70.6576 20.145 70.6576 22.3561C70.6576 24.1801 71.6815 25.2641 73.927 25.7889L75.5272 26.1761C77.1705 26.5633 77.8932 27.1311 77.8932 28.0775C77.8932 29.1787 76.7575 29.9788 75.2089 29.9788C73.5484 29.9788 72.3955 29.2303 72.2321 28.0517H70.3221Z" fill="white"/>
<path d="M51.8348 22.2009C50.6063 22.2009 49.5437 22.8151 48.9959 23.8444H48.8631V22.3503H47.1448V34.3947H48.9295V30.0202H49.0706C49.5437 30.9748 50.5647 31.5392 51.8514 31.5392C54.1341 31.5392 55.5867 29.738 55.5867 26.8659C55.5867 23.9938 54.1341 22.2009 51.8348 22.2009ZM51.3284 29.9372C49.8343 29.9372 48.8963 28.7585 48.8963 26.8742C48.8963 24.9816 49.8343 23.8029 51.3367 23.8029C52.8475 23.8029 53.7522 24.9567 53.7522 26.8659C53.7522 28.7834 52.8475 29.9372 51.3284 29.9372Z" fill="white"/>
<path d="M61.8316 22.2009C60.603 22.2009 59.5405 22.8151 58.9927 23.8444H58.8599V22.3503H57.1416V34.3947H58.9263V30.0202H59.0674C59.5405 30.9748 60.5615 31.5392 61.8482 31.5392C64.1309 31.5392 65.5835 29.738 65.5835 26.8659C65.5835 23.9938 64.1309 22.2009 61.8316 22.2009ZM61.3252 29.9372C59.8311 29.9372 58.8931 28.7585 58.8931 26.8742C58.8931 24.9816 59.8311 23.8029 61.3335 23.8029C62.8443 23.8029 63.749 24.9567 63.749 26.8659C63.749 28.7834 62.8443 29.9372 61.3252 29.9372Z" fill="white"/>
<path d="M43.9428 31.3898H45.9905L41.508 18.975H39.4346L34.9521 31.3898H36.931L38.0752 28.0947H42.8072L43.9428 31.3898ZM40.3724 21.2291H40.5186L42.3168 26.4772H38.5656L40.3724 21.2291Z" fill="white"/>
<path d="M36.1514 9.61084V15.5999H38.3137C40.0984 15.5999 41.1318 14.5 41.1318 12.5867C41.1318 10.7024 40.0901 9.61084 38.3137 9.61084H36.1514ZM37.0811 10.4575H38.21C39.4509 10.4575 40.1855 11.2461 40.1855 12.5991C40.1855 13.9729 39.4634 14.7532 38.21 14.7532H37.0811V10.4575Z" fill="white"/>
<path d="M44.2969 15.687C45.6167 15.687 46.4261 14.803 46.4261 13.3379C46.4261 11.8811 45.6126 10.9929 44.2969 10.9929C42.9771 10.9929 42.1636 11.8811 42.1636 13.3379C42.1636 14.803 42.9729 15.687 44.2969 15.687ZM44.2969 14.8943C43.5208 14.8943 43.085 14.3257 43.085 13.3379C43.085 12.3584 43.5208 11.7856 44.2969 11.7856C45.0689 11.7856 45.5088 12.3584 45.5088 13.3379C45.5088 14.3215 45.0689 14.8943 44.2969 14.8943Z" fill="white"/>
<path d="M53.3182 11.0801H52.4259L51.6207 14.5291H51.5501L50.6205 11.0801H49.7655L48.8358 14.5291H48.7694L47.9601 11.0801H47.0553L48.3004 15.5999H49.2176L50.1473 12.2712H50.2179L51.1517 15.5999H52.0772L53.3182 11.0801Z" fill="white"/>
<path d="M54.3458 15.5999H55.2382V12.9561C55.2382 12.2505 55.6574 11.8105 56.3173 11.8105C56.9772 11.8105 57.2926 12.1716 57.2926 12.8979V15.5999H58.185V12.6738C58.185 11.5989 57.6288 10.9929 56.6203 10.9929C55.9396 10.9929 55.4914 11.2959 55.2714 11.7981H55.205V11.0801H54.3458V15.5999Z" fill="white"/>
<path d="M59.5903 15.5999H60.4826V9.31616H59.5903V15.5999Z" fill="white"/>
<path d="M63.8386 15.687C65.1584 15.687 65.9678 14.803 65.9678 13.3379C65.9678 11.8811 65.1543 10.9929 63.8386 10.9929C62.5188 10.9929 61.7053 11.8811 61.7053 13.3379C61.7053 14.803 62.5146 15.687 63.8386 15.687ZM63.8386 14.8943C63.0625 14.8943 62.6267 14.3257 62.6267 13.3379C62.6267 12.3584 63.0625 11.7856 63.8386 11.7856C64.6106 11.7856 65.0505 12.3584 65.0505 13.3379C65.0505 14.3215 64.6106 14.8943 63.8386 14.8943Z" fill="white"/>
<path d="M68.6265 14.9233C68.1409 14.9233 67.7881 14.6868 67.7881 14.28C67.7881 13.8816 68.0704 13.6699 68.6929 13.6284L69.7969 13.5579V13.9355C69.7969 14.4958 69.2989 14.9233 68.6265 14.9233ZM68.3982 15.6746C68.9917 15.6746 69.4856 15.4172 69.7554 14.9648H69.826V15.5999H70.6851V12.512C70.6851 11.5574 70.0459 10.9929 68.9129 10.9929C67.8877 10.9929 67.1573 11.491 67.066 12.2671H67.9292C68.0289 11.9475 68.3733 11.7649 68.8714 11.7649C69.4815 11.7649 69.7969 12.0347 69.7969 12.512V12.9021L68.5726 12.9727C67.4976 13.0391 66.8916 13.5081 66.8916 14.3215C66.8916 15.1475 67.5267 15.6746 68.3982 15.6746Z" fill="white"/>
<path d="M73.7132 15.6746C74.3358 15.6746 74.8629 15.3799 75.1327 14.886H75.2032V15.5999H76.0582V9.31616H75.1659V11.7981H75.0995C74.8546 11.3 74.3316 11.0054 73.7132 11.0054C72.5719 11.0054 71.8373 11.9102 71.8373 13.3379C71.8373 14.7698 72.5636 15.6746 73.7132 15.6746ZM73.9664 11.8064C74.7135 11.8064 75.1825 12.3999 75.1825 13.342C75.1825 14.2883 74.7176 14.8735 73.9664 14.8735C73.211 14.8735 72.7586 14.2966 72.7586 13.3379C72.7586 12.3875 73.2152 11.8064 73.9664 11.8064Z" fill="white"/>
<path d="M81.8447 15.687C83.1645 15.687 83.9738 14.803 83.9738 13.3379C83.9738 11.8811 83.1604 10.9929 81.8447 10.9929C80.5249 10.9929 79.7114 11.8811 79.7114 13.3379C79.7114 14.803 80.5207 15.687 81.8447 15.687ZM81.8447 14.8943C81.0686 14.8943 80.6328 14.3257 80.6328 13.3379C80.6328 12.3584 81.0686 11.7856 81.8447 11.7856C82.6166 11.7856 83.0566 12.3584 83.0566 13.3379C83.0566 14.3215 82.6166 14.8943 81.8447 14.8943Z" fill="white"/>
<path d="M85.155 15.5999H86.0474V12.9561C86.0474 12.2505 86.4666 11.8105 87.1265 11.8105C87.7864 11.8105 88.1018 12.1716 88.1018 12.8979V15.5999H88.9941V12.6738C88.9941 11.5989 88.438 10.9929 87.4294 10.9929C86.7488 10.9929 86.3005 11.2959 86.0806 11.7981H86.0142V11.0801H85.155V15.5999Z" fill="white"/>
<path d="M93.1039 9.95532V11.1008H92.3858V11.8521H93.1039V14.4045C93.1039 15.2761 93.4981 15.6248 94.4901 15.6248C94.6644 15.6248 94.8304 15.604 94.9757 15.5791V14.8362C94.8512 14.8486 94.7723 14.8569 94.6353 14.8569C94.1913 14.8569 93.9962 14.6494 93.9962 14.1763V11.8521H94.9757V11.1008H93.9962V9.95532H93.1039Z" fill="white"/>
<path d="M96.1735 15.5999H97.0658V12.9602C97.0658 12.2754 97.4726 11.8147 98.203 11.8147C98.8339 11.8147 99.1701 12.1799 99.1701 12.9021V15.5999H100.062V12.6821C100.062 11.6072 99.4689 10.9971 98.506 10.9971C97.8253 10.9971 97.348 11.3 97.1281 11.8064H97.0575V9.31616H96.1735V15.5999Z" fill="white"/>
<path d="M103.281 11.7524C103.941 11.7524 104.373 12.2131 104.394 12.9229H102.111C102.161 12.2173 102.622 11.7524 103.281 11.7524ZM104.39 14.3796C104.224 14.7324 103.854 14.9275 103.315 14.9275C102.601 14.9275 102.14 14.4253 102.111 13.6326V13.5828H105.303V13.2715C105.303 11.8521 104.543 10.9929 103.286 10.9929C102.011 10.9929 101.202 11.9102 101.202 13.3545C101.202 14.7988 101.995 15.687 103.29 15.687C104.323 15.687 105.045 15.189 105.249 14.3796H104.39Z" fill="white"/>
<path d="M25.269 21.2007C25.2907 19.5197 26.1934 17.9291 27.6256 17.0487C26.7221 15.7583 25.2088 14.9402 23.6344 14.891C21.9552 14.7147 20.3272 15.8958 19.4715 15.8958C18.5992 15.8958 17.2817 14.9085 15.863 14.9377C14.0137 14.9974 12.2898 16.0488 11.3901 17.6655C9.45607 21.014 10.8987 25.935 12.7513 28.6416C13.6782 29.967 14.7615 31.4474 16.1789 31.3949C17.566 31.3374 18.084 30.5104 19.7583 30.5104C21.4171 30.5104 21.9031 31.3949 23.3493 31.3615C24.8377 31.3374 25.7754 30.0303 26.6698 28.6924C27.3358 27.748 27.8483 26.7043 28.1882 25.5999C26.4391 24.8601 25.271 23.0999 25.269 21.2007Z" fill="white"/>
<path d="M22.5373 13.111C23.3489 12.1368 23.7487 10.8846 23.6518 9.62036C22.412 9.75058 21.2668 10.3431 20.4443 11.28C19.64 12.1953 19.2214 13.4254 19.3006 14.6414C20.5408 14.6541 21.7601 14.0776 22.5373 13.111Z" fill="white"/>
<rect x="1" y="1.3999" width="119" height="39" rx="6.5" stroke="#A6A6A6"/>
</svg>
