<svg width="136" height="41" viewBox="0 0 136 41" fill="none" xmlns="http://www.w3.org/2000/svg">
<rect x="1" y="1.3999" width="134" height="39" rx="4.5" fill="black"/>
<path d="M68.636 22.651C66.284 22.651 64.367 24.44 64.367 26.904C64.367 29.353 66.284 31.157 68.636 31.157C70.989 31.157 72.906 29.353 72.906 26.904C72.905 24.44 70.988 22.651 68.636 22.651ZM68.636 29.483C67.347 29.483 66.236 28.42 66.236 26.905C66.236 25.374 67.348 24.327 68.636 24.327C69.925 24.327 71.036 25.374 71.036 26.905C71.036 28.419 69.925 29.483 68.636 29.483ZM59.322 22.651C56.97 22.651 55.053 24.44 55.053 26.904C55.053 29.353 56.97 31.157 59.322 31.157C61.675 31.157 63.592 29.353 63.592 26.904C63.592 24.44 61.675 22.651 59.322 22.651ZM59.322 29.483C58.033 29.483 56.922 28.42 56.922 26.905C56.922 25.374 58.034 24.327 59.322 24.327C60.611 24.327 61.722 25.374 61.722 26.905C61.723 28.419 60.611 29.483 59.322 29.483ZM48.244 23.957V25.761H52.562C52.433 26.776 52.095 27.517 51.579 28.032C50.951 28.66 49.968 29.353 48.244 29.353C45.586 29.353 43.508 27.21 43.508 24.552C43.508 21.894 45.586 19.751 48.244 19.751C49.678 19.751 50.725 20.315 51.498 21.04L52.771 19.767C51.691 18.736 50.258 17.947 48.244 17.947C44.603 17.947 41.542 20.911 41.542 24.552C41.542 28.193 44.603 31.157 48.244 31.157C50.209 31.157 51.692 30.512 52.851 29.304C54.043 28.112 54.414 26.436 54.414 25.083C54.414 24.665 54.382 24.278 54.317 23.956H48.244V23.957ZM93.552 25.358C93.198 24.408 92.118 22.651 89.911 22.651C87.72 22.651 85.899 24.375 85.899 26.904C85.899 29.288 87.704 31.157 90.12 31.157C92.069 31.157 93.197 29.965 93.665 29.272L92.215 28.305C91.732 29.014 91.071 29.481 90.12 29.481C89.17 29.481 88.493 29.046 88.058 28.192L93.745 25.84L93.552 25.358ZM87.752 26.776C87.704 25.132 89.025 24.295 89.976 24.295C90.717 24.295 91.345 24.666 91.555 25.197L87.752 26.776ZM83.129 30.9H84.997V18.399H83.129V30.9ZM80.067 23.602H80.003C79.584 23.102 78.778 22.651 77.764 22.651C75.637 22.651 73.688 24.52 73.688 26.921C73.688 29.305 75.637 31.158 77.764 31.158C78.779 31.158 79.584 30.707 80.003 30.192H80.067V30.804C80.067 32.431 79.197 33.301 77.796 33.301C76.652 33.301 75.943 32.48 75.653 31.787L74.026 32.464C74.493 33.591 75.733 34.977 77.796 34.977C79.987 34.977 81.84 33.688 81.84 30.546V22.91H80.068V23.602H80.067ZM77.925 29.483C76.636 29.483 75.557 28.403 75.557 26.921C75.557 25.422 76.636 24.327 77.925 24.327C79.197 24.327 80.196 25.422 80.196 26.921C80.196 28.403 79.197 29.483 77.925 29.483ZM102.306 18.399H97.835V30.9H99.7V26.164H102.305C104.373 26.164 106.407 24.667 106.407 22.282C106.407 19.897 104.374 18.399 102.306 18.399ZM102.354 24.424H99.7V20.139H102.354C103.749 20.139 104.541 21.294 104.541 22.282C104.541 23.25 103.749 24.424 102.354 24.424ZM113.886 22.629C112.535 22.629 111.136 23.224 110.557 24.543L112.213 25.234C112.567 24.543 113.227 24.317 113.918 24.317C114.883 24.317 115.864 24.896 115.88 25.925V26.054C115.542 25.861 114.818 25.572 113.934 25.572C112.149 25.572 110.331 26.553 110.331 28.386C110.331 30.059 111.795 31.136 113.435 31.136C114.689 31.136 115.381 30.573 115.815 29.913H115.879V30.878H117.681V26.085C117.682 23.867 116.024 22.629 113.886 22.629ZM113.66 29.48C113.05 29.48 112.197 29.174 112.197 28.418C112.197 27.453 113.259 27.083 114.176 27.083C114.995 27.083 115.382 27.26 115.88 27.501C115.735 28.66 114.738 29.48 113.66 29.48ZM124.243 22.902L122.104 28.322H122.04L119.82 22.902H117.81L121.139 30.477L119.241 34.691H121.187L126.318 22.902H124.243ZM107.437 30.9H109.302V18.399H107.437V30.9Z" fill="white"/>
<path d="M47.918 11.1428C47.918 11.9808 47.6701 12.6478 47.173 13.1458C46.609 13.7378 45.8731 14.0338 44.9691 14.0338C44.1031 14.0338 43.3661 13.7338 42.7611 13.1338C42.1551 12.5328 41.8521 11.7888 41.8521 10.9008C41.8521 10.0118 42.1551 9.26785 42.7611 8.66785C43.3661 8.06685 44.1031 7.76685 44.9691 7.76685C45.3991 7.76685 45.8101 7.85085 46.2001 8.01785C46.5911 8.18585 46.904 8.40885 47.1381 8.68785L46.611 9.21585C46.214 8.74085 45.667 8.50385 44.968 8.50385C44.336 8.50385 43.79 8.72585 43.329 9.16985C42.868 9.61385 42.6381 10.1908 42.6381 10.8998C42.6381 11.6088 42.868 12.1858 43.329 12.6298C43.79 13.0738 44.336 13.2958 44.968 13.2958C45.638 13.2958 46.1971 13.0728 46.6441 12.6258C46.9341 12.3348 47.102 11.9298 47.147 11.4108H44.968V10.6898H47.875C47.905 10.8468 47.918 10.9978 47.918 11.1428Z" fill="white"/>
<path d="M52.5281 8.6369H49.7961V10.5389H52.2601V11.2599H49.7961V13.1619H52.5281V13.8999H49.0251V7.8999H52.5281V8.6369Z" fill="white"/>
<path d="M55.779 13.8999H55.008V8.6369H53.332V7.8999H57.455V8.6369H55.779V13.8999Z" fill="white"/>
<path d="M60.438 13.8999V7.8999H61.209V13.8999H60.438Z" fill="white"/>
<path d="M64.6281 13.8999H63.8572V8.6369H62.1812V7.8999H66.3042V8.6369H64.6281V13.8999Z" fill="white"/>
<path d="M74.1089 13.1249C73.5189 13.7309 72.7859 14.0339 71.9089 14.0339C71.0319 14.0339 70.2989 13.7309 69.7099 13.1249C69.1199 12.5189 68.8259 11.7769 68.8259 10.8999C68.8259 10.0229 69.1199 9.28089 69.7099 8.67489C70.2989 8.06889 71.0319 7.76489 71.9089 7.76489C72.7809 7.76489 73.5129 8.06989 74.1049 8.67889C74.6969 9.28789 74.9929 10.0279 74.9929 10.8999C74.9929 11.7769 74.6979 12.5189 74.1089 13.1249ZM70.2789 12.6219C70.7229 13.0719 71.2659 13.2959 71.9089 13.2959C72.5519 13.2959 73.0959 13.0709 73.5389 12.6219C73.9829 12.1719 74.2059 11.5979 74.2059 10.8999C74.2059 10.2019 73.9829 9.62789 73.5389 9.17789C73.0959 8.72789 72.5519 8.50389 71.9089 8.50389C71.2659 8.50389 70.7229 8.72889 70.2789 9.17789C69.8359 9.62789 69.6129 10.2019 69.6129 10.8999C69.6129 11.5979 69.8359 12.1719 70.2789 12.6219Z" fill="white"/>
<path d="M76.0749 13.8999V7.8999H77.013L79.929 12.5669H79.9619L79.929 11.4109V7.8999H80.6999V13.8999H79.8949L76.844 9.0059H76.8109L76.844 10.1619V13.8999H76.0749Z" fill="white"/>
<path d="M47.918 11.1428C47.918 11.9808 47.6701 12.6478 47.173 13.1458C46.609 13.7378 45.8731 14.0338 44.9691 14.0338C44.1031 14.0338 43.3661 13.7338 42.7611 13.1338C42.1551 12.5328 41.8521 11.7888 41.8521 10.9008C41.8521 10.0118 42.1551 9.26785 42.7611 8.66785C43.3661 8.06685 44.1031 7.76685 44.9691 7.76685C45.3991 7.76685 45.8101 7.85085 46.2001 8.01785C46.5911 8.18585 46.904 8.40885 47.1381 8.68785L46.611 9.21585C46.214 8.74085 45.667 8.50385 44.968 8.50385C44.336 8.50385 43.79 8.72585 43.329 9.16985C42.868 9.61385 42.6381 10.1908 42.6381 10.8998C42.6381 11.6088 42.868 12.1858 43.329 12.6298C43.79 13.0738 44.336 13.2958 44.968 13.2958C45.638 13.2958 46.1971 13.0728 46.6441 12.6258C46.9341 12.3348 47.102 11.9298 47.147 11.4108H44.968V10.6898H47.875C47.905 10.8468 47.918 10.9978 47.918 11.1428Z" stroke="white" stroke-width="0.2" stroke-miterlimit="10"/>
<path d="M52.5281 8.6369H49.7961V10.5389H52.2601V11.2599H49.7961V13.1619H52.5281V13.8999H49.0251V7.8999H52.5281V8.6369Z" stroke="white" stroke-width="0.2" stroke-miterlimit="10"/>
<path d="M55.779 13.8999H55.008V8.6369H53.332V7.8999H57.455V8.6369H55.779V13.8999Z" stroke="white" stroke-width="0.2" stroke-miterlimit="10"/>
<path d="M60.438 13.8999V7.8999H61.209V13.8999H60.438Z" stroke="white" stroke-width="0.2" stroke-miterlimit="10"/>
<path d="M64.6281 13.8999H63.8572V8.6369H62.1812V7.8999H66.3042V8.6369H64.6281V13.8999Z" stroke="white" stroke-width="0.2" stroke-miterlimit="10"/>
<path d="M74.1089 13.1249C73.5189 13.7309 72.7859 14.0339 71.9089 14.0339C71.0319 14.0339 70.2989 13.7309 69.7099 13.1249C69.1199 12.5189 68.8259 11.7769 68.8259 10.8999C68.8259 10.0229 69.1199 9.28089 69.7099 8.67489C70.2989 8.06889 71.0319 7.76489 71.9089 7.76489C72.7809 7.76489 73.5129 8.06989 74.1049 8.67889C74.6969 9.28789 74.9929 10.0279 74.9929 10.8999C74.9929 11.7769 74.6979 12.5189 74.1089 13.1249ZM70.2789 12.6219C70.7229 13.0719 71.2659 13.2959 71.9089 13.2959C72.5519 13.2959 73.0959 13.0709 73.5389 12.6219C73.9829 12.1719 74.2059 11.5979 74.2059 10.8999C74.2059 10.2019 73.9829 9.62789 73.5389 9.17789C73.0959 8.72789 72.5519 8.50389 71.9089 8.50389C71.2659 8.50389 70.7229 8.72889 70.2789 9.17789C69.8359 9.62789 69.6129 10.2019 69.6129 10.8999C69.6129 11.5979 69.8359 12.1719 70.2789 12.6219Z" stroke="white" stroke-width="0.2" stroke-miterlimit="10"/>
<path d="M76.0749 13.8999V7.8999H77.013L79.929 12.5669H79.9619L79.929 11.4109V7.8999H80.6999V13.8999H79.8949L76.844 9.0059H76.8109L76.844 10.1619V13.8999H76.0749Z" stroke="white" stroke-width="0.2" stroke-miterlimit="10"/>
<g filter="url(#filter0_ii_8684_104062)">
<path d="M10.9361 8.43775C10.6451 8.74575 10.4731 9.22375 10.4731 9.84275V31.9587C10.4731 32.5787 10.6451 33.0557 10.9361 33.3637L11.0101 33.4357L23.3991 21.0467V20.9007V20.7547L11.0101 8.36475L10.9361 8.43775Z" fill="url(#paint0_linear_8684_104062)"/>
<path d="M27.5279 25.1778L23.3989 21.0468V20.9008V20.7548L27.5289 16.6248L27.6219 16.6778L32.5149 19.4578C33.9119 20.2518 33.9119 21.5508 32.5149 22.3458L27.6219 25.1258L27.5279 25.1778Z" fill="url(#paint1_linear_8684_104062)"/>
<g filter="url(#filter1_i_8684_104062)">
<path d="M27.622 25.1249L23.398 20.9009L10.936 33.3639C11.396 33.8519 12.157 33.9119 13.014 33.4259L27.622 25.1249Z" fill="url(#paint2_linear_8684_104062)"/>
</g>
<path d="M27.622 16.6768L13.014 8.37685C12.157 7.88985 11.396 7.95085 10.936 8.43885L23.399 20.9018L27.622 16.6768Z" fill="url(#paint3_linear_8684_104062)"/>
</g>
<rect x="1" y="1.3999" width="134" height="39" rx="4.5" stroke="#A6A6A6"/>
<defs>
<filter id="filter0_ii_8684_104062" x="10.4731" y="8.04077" width="23.0894" height="25.7207" filterUnits="userSpaceOnUse" color-interpolation-filters="sRGB">
<feFlood flood-opacity="0" result="BackgroundImageFix"/>
<feBlend mode="normal" in="SourceGraphic" in2="BackgroundImageFix" result="shape"/>
<feColorMatrix in="SourceAlpha" type="matrix" values="0 0 0 0 0 0 0 0 0 0 0 0 0 0 0 0 0 0 127 0" result="hardAlpha"/>
<feOffset dy="-0.15"/>
<feComposite in2="hardAlpha" operator="arithmetic" k2="-1" k3="1"/>
<feColorMatrix type="matrix" values="0 0 0 0 0 0 0 0 0 0 0 0 0 0 0 0 0 0 0.12 0"/>
<feBlend mode="normal" in2="shape" result="effect1_innerShadow_8684_104062"/>
<feColorMatrix in="SourceAlpha" type="matrix" values="0 0 0 0 0 0 0 0 0 0 0 0 0 0 0 0 0 0 127 0" result="hardAlpha"/>
<feOffset dy="0.15"/>
<feComposite in2="hardAlpha" operator="arithmetic" k2="-1" k3="1"/>
<feColorMatrix type="matrix" values="0 0 0 0 1 0 0 0 0 1 0 0 0 0 1 0 0 0 0.25 0"/>
<feBlend mode="normal" in2="effect1_innerShadow_8684_104062" result="effect2_innerShadow_8684_104062"/>
</filter>
<filter id="filter1_i_8684_104062" x="10.936" y="20.9009" width="16.686" height="12.8606" filterUnits="userSpaceOnUse" color-interpolation-filters="sRGB">
<feFlood flood-opacity="0" result="BackgroundImageFix"/>
<feBlend mode="normal" in="SourceGraphic" in2="BackgroundImageFix" result="shape"/>
<feColorMatrix in="SourceAlpha" type="matrix" values="0 0 0 0 0 0 0 0 0 0 0 0 0 0 0 0 0 0 127 0" result="hardAlpha"/>
<feOffset dy="-0.15"/>
<feComposite in2="hardAlpha" operator="arithmetic" k2="-1" k3="1"/>
<feColorMatrix type="matrix" values="0 0 0 0 0 0 0 0 0 0 0 0 0 0 0 0 0 0 0.08 0"/>
<feBlend mode="normal" in2="shape" result="effect1_innerShadow_8684_104062"/>
</filter>
<linearGradient id="paint0_linear_8684_104062" x1="22.3009" y1="9.60875" x2="5.51895" y2="26.3907" gradientUnits="userSpaceOnUse">
<stop stop-color="#00A0FF"/>
<stop offset="0.0066" stop-color="#00A1FF"/>
<stop offset="0.2601" stop-color="#00BEFF"/>
<stop offset="0.5122" stop-color="#00D2FF"/>
<stop offset="0.7604" stop-color="#00DFFF"/>
<stop offset="1" stop-color="#00E3FF"/>
</linearGradient>
<linearGradient id="paint1_linear_8684_104062" x1="34.3334" y1="20.9008" x2="10.1375" y2="20.9008" gradientUnits="userSpaceOnUse">
<stop stop-color="#FFE000"/>
<stop offset="0.4087" stop-color="#FFBD00"/>
<stop offset="0.7754" stop-color="#FFA500"/>
<stop offset="1" stop-color="#FF9C00"/>
</linearGradient>
<linearGradient id="paint2_linear_8684_104062" x1="25.3281" y1="23.1948" x2="2.56964" y2="45.9533" gradientUnits="userSpaceOnUse">
<stop stop-color="#FF3A44"/>
<stop offset="1" stop-color="#C31162"/>
</linearGradient>
<linearGradient id="paint3_linear_8684_104062" x1="7.79743" y1="1.07665" x2="17.9597" y2="11.2389" gradientUnits="userSpaceOnUse">
<stop stop-color="#32A071"/>
<stop offset="0.0685" stop-color="#2DA771"/>
<stop offset="0.4762" stop-color="#15CF74"/>
<stop offset="0.8009" stop-color="#06E775"/>
<stop offset="1" stop-color="#00F076"/>
</linearGradient>
</defs>
</svg>
