<svg width="65" height="54" fill="none" xmlns="http://www.w3.org/2000/svg"><g clip-path="url(#a)" fill="#1D2026"><path d="M51.474 53.195c7.498 0 12.61-4.931 12.61-11.865 0-6.626-4.941-11.249-11.928-11.249a12.435 12.435 0 0 0-4.494.898c.8-9.996 6.438-17.754 15.793-23.165a1.987 1.987 0 0 0 .971-1.213 1.95 1.95 0 0 0-.213-1.534l-2.43-3.988A2.44 2.44 0 0 0 60.348.07 2.462 2.462 0 0 0 58.6.277C44.513 7.533 36.138 19.85 36.138 34.55c0 11.71 6.475 18.645 15.336 18.645zM15.837 53.195c7.497 0 12.61-4.931 12.61-11.865 0-6.626-4.942-11.249-11.929-11.249a12.436 12.436 0 0 0-4.493.898c.8-9.996 6.437-17.754 15.792-23.165a1.99 1.99 0 0 0 .971-1.213 1.955 1.955 0 0 0-.213-1.534l-2.43-3.987A2.44 2.44 0 0 0 24.71.07a2.462 2.462 0 0 0-1.748.207C8.875 7.533.5 19.85.5 34.55c0 11.71 6.475 18.645 15.337 18.645z"/></g><defs><clipPath id="a"><path fill="#fff" transform="translate(.5)" d="M0 0h64v53.195H0z"/></clipPath></defs></svg>